Coordinates
version=1
nRows=11
nColumns=42
inDegrees=yes

Units are S.I. units (second, meters, Newtons, ...)
If the header above contains a line with 'inDegrees', this indicates whether rotational values are in degrees (yes) or radians (no).

endheader
time	pelvis_tilt	pelvis_list	pelvis_rotation	pelvis_tx	pelvis_ty	pelvis_tz	hip_flexion_r	hip_adduction_r	hip_rotation_r	knee_angle_r	knee_adduction_r	knee_angle_r_beta	ankle_angle_r	subtalar_angle_r	mtp_angle_r	hip_flexion_l	hip_adduction_l	hip_rotation_l	knee_angle_l	knee_adduction_l	knee_angle_l_beta	ankle_angle_l	subtalar_angle_l	mtp_angle_l	lumbar_extension	lumbar_bending	lumbar_rotation	arm_flex_r	arm_add_r	arm_rot_r	elbow_flex_r	pro_sup_r	wrist_flex_r	wrist_dev_r	arm_flex_l	arm_add_l	arm_rot_l	elbow_flex_l	pro_sup_l	wrist_flex_l	wrist_dev_l
      0.09000000	     -2.46792436	     -0.86461794	      7.21428942	     -1.48611654	      0.86299244	     -0.16003414	     25.33546320	     -7.70088866	     -8.73796282	      6.87932974	      9.54356298	      0.12006695	     -2.58138362	     -8.05770867	     -9.42990911	    -11.61400620	    -11.47065919	     -0.53778143	      9.32675171	     21.85212690	      0.16278253	     19.17330989	      4.42811947	     -9.42990911	     -9.32726962	      4.76415758	     -4.55880974	     -4.91816172	    -12.45318203	    -11.52292630	     19.47423461	     90.00000001	      0.00000000	      0.00000000	     10.64130789	    -22.00324361	      7.48511950	     40.81051974	     90.00000001	      0.00000000	      0.00000000
      0.10000000	     -2.33918394	     -1.18981061	      7.31297875	     -1.47455168	      0.86228201	     -0.15880106	     25.38635174	     -7.39564591	     -9.06349258	      8.31781074	      9.59041795	      0.14517318	     -3.22790617	     -8.63952365	     -9.38967452	    -12.17412352	    -12.08427965	     -0.36743947	     10.02004963	     21.86862221	      0.17488286	     19.04138349	      4.25991665	     -9.38967452	     -9.33780630	      5.32990823	     -4.61210379	     -4.81549781	    -12.56950039	    -11.48539561	     19.52292617	     90.00000001	      0.00000000	      0.00000000	     10.41124523	    -21.89423912	      7.28684773	     40.70344776	     90.00000001	      0.00000000	      0.00000000
      0.11000000	     -2.28425035	     -1.42325686	      7.35789725	     -1.46288987	      0.86188570	     -0.15758701	     25.24394223	     -7.16289699	     -8.55290333	      9.28780311	      9.77980470	      0.16210274	     -3.48348251	     -8.55846613	     -9.37572129	    -12.61252040	    -12.44126049	      0.20150237	     10.67790538	     21.66351615	      0.18636461	     18.85990233	      4.26427354	     -9.37572129	     -9.25474749	      5.78846706	     -4.58300345	     -4.83688155	    -12.61407591	    -11.47761057	     19.61546576	     90.00000001	      0.00000000	      0.00000000	     10.03787966	    -21.77596200	      7.26852887	     40.60176317	     90.00000001	      0.00000000	      0.00000000
      0.12000000	     -2.09828763	     -1.98826919	      7.37833940	     -1.45141013	      0.86178487	     -0.15591305	     25.37569531	     -6.55243666	     -9.50726996	     11.38732534	      9.70423126	      0.19874632	     -4.37785920	     -9.71209935	     -9.34008701	    -12.89618606	    -13.47222343	      0.16998700	     12.03255487	     21.98285913	      0.21000770	     18.33639670	      3.47783866	     -9.34008701	     -9.33906877	      6.60146816	     -4.53212493	     -4.52618473	    -12.74684401	    -11.40690233	     19.55156024	     90.00000001	      0.00000000	      0.00000000	      9.78903010	    -21.57764174	      6.92191772	     40.24877399	     90.00000001	      0.00000000	      0.00000000
      0.13000000	     -2.11673322	     -2.43674775	      7.38225266	     -1.43992393	      0.86193296	     -0.15441898	     25.45466344	     -6.10998443	     -9.60503010	     12.91844583	      9.83380694	      0.22546941	     -4.84237988	    -10.37341101	     -9.29821333	    -12.75723165	    -14.14725679	      0.62114590	     13.61924639	     21.95994647	      0.23770069	     17.56781724	      2.68515311	     -9.29821333	     -9.16451910	      7.29409105	     -4.50603019	     -4.27306288	    -12.89520589	    -11.32379772	     19.33617184	     90.00000001	      0.00000000	      0.00000000	      9.41505153	    -21.20863482	      6.47743547	     39.76962893	     90.00000001	      0.00000000	      0.00000000
      0.14000000	     -2.11595522	     -2.86018354	      7.32313292	     -1.42842250	      0.86244731	     -0.15279157	     25.42385109	     -5.64709602	     -9.37133177	     14.27588540	     10.02454272	      0.24916120	     -4.94277644	    -10.88953912	     -9.25046936	    -12.51288245	    -14.79192727	      1.05614886	     15.43908631	     21.96191123	      0.26946289	     16.56492424	      1.72306098	     -9.25046936	     -9.02945610	      7.93429603	     -4.43632834	     -3.96134346	    -13.01932356	    -11.21973351	     19.04079305	     90.00000001	      0.00000000	      0.00000000	      8.99991193	    -20.80028912	      5.94345251	     39.21479547	     90.00000001	      0.00000000	      0.00000000
      0.15000000	     -2.07164338	     -3.26782391	      7.23036596	     -1.41694654	      0.86330768	     -0.15108454	     25.25481926	     -5.18823450	     -9.03045798	     15.48121724	     10.29703823	      0.27019821	     -4.62730404	    -11.24014236	     -9.21073458	    -12.13938443	    -15.45055107	      1.59946481	     17.52721917	     22.07033134	      0.30590768	     15.30712093	      0.78912134	     -9.21073458	     -8.96265524	      8.56101131	     -4.33412807	     -3.61945468	    -13.12629162	    -11.11912596	     18.84774333	     90.00000001	      0.00000000	      0.00000000	      8.51234767	    -20.43679797	      5.52672326	     38.71806142	     90.00000001	      0.00000000	      0.00000000
      0.16000000	     -2.04778340	     -3.61826939	      7.11385881	     -1.40552100	      0.86440664	     -0.14929872	     25.01446852	     -4.77601447	     -8.61611826	     16.53270824	     10.62181779	      0.28855019	     -4.11205532	    -11.48642789	     -9.17380898	    -11.52731653	    -16.05832797	      2.18202310	     19.97434125	     22.22797515	      0.34861802	     13.72707223	     -0.20775254	     -9.17380898	     -8.88610424	      9.09841397	     -4.23255782	     -3.26261850	    -13.20533310	    -11.00271773	     18.62860517	     90.00000001	      0.00000000	      0.00000000	      7.98291463	    -20.05569754	      5.12554159	     38.19651555	     90.00000001	      0.00000000	      0.00000000
      0.17000000	     -2.15030621	     -3.87191802	      6.89234836	     -1.39424737	      0.86566054	     -0.14747525	     24.81689410	     -4.43155733	     -8.02311510	     17.37469170	     10.97900630	      0.30324558	     -3.72658293	    -11.99483610	     -9.10151904	    -10.55513519	    -16.46748467	      2.69554897	     22.82398647	     22.27733998	      0.39835371	     11.58397045	     -1.76703906	     -9.10151904	     -8.69604761	      9.51028998	     -4.09934107	     -2.62179765	    -13.28518000	    -10.78256189	     17.85738866	     90.00000001	      0.00000000	      0.00000000	      7.49595982	    -19.47030872	      4.13067241	     37.29596278	     90.00000001	      0.00000000	      0.00000000
      0.18000000	     -2.17343611	     -4.12352556	      6.67540203	     -1.38298346	      0.86710024	     -0.14553971	     24.38705395	     -4.05217916	     -7.66489111	     17.98419958	     11.29787671	      0.31388350	     -2.97492006	    -12.08269494	     -9.05243702	     -9.48842620	    -16.96204924	      3.26424732	     25.93070249	     22.47856030	      0.45257614	      9.18508252	     -3.04540496	     -9.05243702	     -8.60531146	      9.89627032	     -3.91074130	     -2.14238342	    -13.35891518	    -10.64300839	     17.54486285	     90.00000001	      0.00000000	      0.00000000	      6.92696204	    -19.03015685	      3.67495235	     36.72616138	     90.00000001	      0.00000000	      0.00000000
      0.19000000	     -2.20036332	     -4.31544921	      6.44746181	     -1.37178201	      0.86865769	     -0.14355683	     23.82663139	     -3.70466530	     -7.55691308	     18.37289846	     11.53640073	      0.32066757	     -2.08834054	    -11.86195386	     -9.00274668	     -8.23529862	    -17.39035461	      3.86654931	     29.26348116	     22.69033232	      0.51074410	      6.48917262	     -4.29925143	     -9.00274668	     -8.51120841	     10.19783729	     -3.73065773	     -1.66159916	    -13.42311091	    -10.48239513	     17.20947762	     90.00000001	      0.00000000	      0.00000000	      6.32424398	    -18.61559451	      3.22788521	     36.08670542	     90.00000001	      0.00000000	      0.00000000
